<svg xmlns="http://www.w3.org/2000/svg" width="256" height="256" viewBox="0 0 256 256" role="img" aria-label="WhatsApp channel">
  <defs>
    <linearGradient id="g" x1="0" y1="0" x2="0" y2="1">
      <stop offset="0" stop-color="#25D366" />
      <stop offset="1" stop-color="#128C7E" />
    </linearGradient>
  </defs>
  <rect width="256" height="256" rx="56" fill="url(#g)" />
  <path
    fill="#ffffff"
    d="M128 56c-39.8 0-72 30.7-72 68.6 0 13.4 4.1 25.9 11.1 36.4L56 200l40.3-10.5c9.7 4.9 20.8 7.7 32.7 7.7 39.8 0 72-30.7 72-68.6S167.8 56 128 56z"
  />
  <path
    fill="#128C7E"
    d="M104.4 96.7c-1.6-3.6-3.3-3.7-4.8-3.7l-4.1-.1c-1.4 0-3.7.5-5.7 2.6-2 2.1-7.5 7.3-7.5 17.8 0 10.5 7.7 20.7 8.7 22.1 1.1 1.4 14.9 23.8 36.8 32.4 18.2 7.2 21.9 5.8 25.9 5.4 4-.4 12.8-5.2 14.6-10.3 1.8-5.1 1.8-9.4 1.3-10.3-.5-.9-2-1.4-4.1-2.5-2.1-1-12.8-6.3-14.7-7-2-.7-3.4-1.1-4.8 1.1-1.4 2.1-5.5 7-6.8 8.4-1.2 1.4-2.5 1.6-4.6.5-2.1-1.1-9.1-3.3-17.3-10.7-6.4-5.7-10.7-12.7-12-14.9-1.2-2.1-.1-3.3 1-4.4 1-1 2.1-2.5 3.2-3.8 1-1.4 1.4-2.3 2.1-3.9.7-1.4.4-2.7-.2-3.8-.5-1.1-4.7-11.6-6.5-15.9z"
  />
</svg>
